<?xml version="1.0" standalone="no"?>
<!DOCTYPE svg PUBLIC "-//W3C//DTD SVG 20010904//EN"
 "http://www.w3.org/TR/2001/REC-SVG-20010904/DTD/svg10.dtd">
<svg version="1.0" xmlns="http://www.w3.org/2000/svg"
 width="512.000000pt" height="512.000000pt" viewBox="0 0 512.000000 512.000000"
 preserveAspectRatio="xMidYMid meet">
<metadata>
Created by potrace 1.14, written by Peter Selinger 2001-2017
</metadata>
<g transform="translate(0.000000,512.000000) scale(0.100000,-0.100000)"
fill="#000000" stroke="none">
<path d="M2380 5114 c-19 -2 -78 -9 -130 -14 -330 -36 -695 -160 -990 -336
-375 -224 -680 -529 -904 -904 -175 -292 -291 -632 -338 -990 -16 -123 -16
-497 0 -620 82 -623 356 -1150 820 -1581 256 -239 575 -425 922 -539 274 -91
491 -124 800 -124 228 0 329 9 530 50 689 141 1304 583 1674 1204 175 292 291
632 338 990 16 123 16 497 0 620 -47 358 -163 698 -338 990 -224 375 -529 680
-904 904 -289 173 -634 291 -980 336 -88 12 -438 21 -500 14z m415 -499 c465
-54 892 -261 1225 -595 334 -333 541 -760 595 -1225 34 -294 1 -607 -94 -886
-85 -248 -170 -406 -343 -635 -70 -93 -77 -112 -54 -154 12 -24 10 -28 -42
-81 -52 -55 -55 -56 -81 -43 -43 23 -61 17 -155 -54 -229 -173 -387 -258 -635
-343 -279 -95 -592 -128 -886 -94 -465 54 -892 261 -1225 595 -334 333 -541
760 -595 1225 -73 625 145 1246 595 1695 449 450 1070 668 1695 595z"/>
<path d="M2540 4463 c-8 -3 -25 -15 -37 -26 -22 -20 -23 -26 -23 -212 0 -179
1 -194 21 -219 16 -20 29 -26 59 -26 30 0 43 6 59 26 20 25 21 40 21 219 0
186 -1 192 -22 212 -26 24 -56 34 -78 26z"/>
<path d="M3148 3492 c-389 -388 -438 -441 -438 -468 0 -42 42 -84 84 -84 27 0
77 46 428 397 l398 398 57 -58 58 -57 -455 -455 -454 -454 -46 49 c-42 45
-115 89 -150 90 -8 0 -179 164 -380 365 -355 355 -367 365 -405 365 -36 0 -46
-8 -172 -133 -125 -126 -133 -136 -133 -172 0 -38 10 -50 361 -401 316 -317
364 -368 379 -411 l16 -48 -438 -440 c-388 -390 -438 -444 -438 -471 0 -42 42
-84 84 -84 27 0 81 50 471 439 l440 439 50 -19 c125 -46 268 3 344 117 16 25
33 60 36 77 5 25 123 149 546 572 503 504 539 543 539 575 0 31 -14 48 -138
172 -124 124 -141 138 -172 138 -32 0 -65 -30 -472 -438z m-1017 -389 l276
-278 -57 -56 -58 -57 -278 279 -279 279 55 55 c30 30 57 55 60 55 3 0 129
-125 281 -277z m499 -431 c99 -61 76 -210 -36 -241 -44 -12 -94 2 -128 35
-111 111 31 289 164 206z"/>
<path d="M680 2615 c-14 -15 -23 -37 -23 -55 0 -18 9 -40 23 -55 23 -25 24
-25 215 -25 179 0 194 1 219 21 37 29 37 89 0 118 -25 20 -40 21 -219 21 -191
0 -192 0 -215 -25z"/>
<path d="M4006 2619 c-37 -29 -37 -89 0 -118 25 -20 40 -21 219 -21 191 0 192
0 215 25 14 15 23 37 23 55 0 18 -9 40 -23 55 -23 25 -24 25 -215 25 -179 0
-194 -1 -219 -21z"/>
<path d="M2501 1114 c-20 -25 -21 -40 -21 -219 0 -191 0 -192 25 -215 15 -14
37 -23 55 -23 18 0 40 9 55 23 25 23 25 24 25 215 0 179 -1 194 -21 219 -16
20 -29 26 -59 26 -30 0 -43 -6 -59 -26z"/>
</g>
</svg>
